<?xml version="1.0" encoding="UTF-8"?>
<svg width="81px" height="85px" viewBox="0 0 81 85" version="1.1" xmlns="http://www.w3.org/2000/svg" xmlns:xlink="http://www.w3.org/1999/xlink">
    <!-- Generator: Sketch 48.2 (47327) - http://www.bohemiancoding.com/sketch -->
    <title>Logo Inverse</title>
    <desc>Created with Sketch.</desc>
    <defs></defs>
    <g id="Desktop-HD" stroke="none" stroke-width="1" fill="none" fill-rule="evenodd" transform="translate(-39.000000, -39.000000)">
        <g id="Top" transform="translate(-1.000000, -2.000000)">
            <g id="Logo-Inverse" transform="translate(41.000000, 42.000000)">
                <g id="Logo">
                    <g id="Group">
                        <g id="OutPlug" transform="translate(75.595697, 53.113686) rotate(210.000000) translate(-75.595697, -53.113686) translate(72.989180, 49.023542)">
                            <path d="M1.26277232,0 L3.8795546,0 C4.1225599,-4.46393485e-17 4.31955461,0.196994714 4.31955461,0.44000001 L4.31955461,2.54969064 L0.822772307,2.54969064 L0.822772307,0.44000001 C0.822772307,0.196994714 1.01976702,-2.32916408e-16 1.26277232,-2.77555756e-16 Z" id="Rectangle-2" stroke="#FFFFFF"></path>
                            <rect id="Rectangle-2" fill="#FFFFFF" x="-1.13686838e-13" y="2.54969064" width="5.14232692" height="5.49164138" rx="0.468550588"></rect>
                        </g>
                        <path d="M77.8712406,49.0521146 C80.757558,43.9945749 76.2219374,32.6060388 63.2075773,32.6060388 C55.0415065,32.6060388 49.6078192,38.3449127 49.6078192,44.517048 M51.8197838,64.1321834 C51.8197838,65.4295102 53.5919221,68.6792747 53.5919221,70.5455953 C53.5919221,76.1993282 38.7598442,66.6908411 41.7039982,70.5455953 C44.7338096,73.9503953 45.7843079,78.6736501 42.9153839,78.665652 C37.7637469,78.6512901 37.8260152,82.9908198 35.5650272,82.9908198 C33.3040391,82.9908198 34.151064,78.665652 29.3509363,78.665652 C26.5393054,78.665652 27.0938942,75.8317838 31.014703,70.1640475 C31.1599428,69.954062 31.1067292,69.6666064 30.8958311,69.5219867 C30.7154842,69.398317 30.4728228,69.4171284 30.3138761,69.5671008 L29.1285651,70.6854875 C26.4233622,73.2379501 22.1736942,73.1987452 19.5164618,70.5968121 C15.0853814,66.2319154 18.6383659,61.2966554 21.0169248,61.2966554 C23.3954836,61.2966554 21.505145,64.5687616 24.2112687,65.9782637 C26.9173924,67.3877659 29.1602266,63.7222917 29.6469695,62.62579 C30.1337124,61.5292883 28.4180149,62.323544 27.9684926,59.7419043 C27.5189704,57.1602646 29.6469695,57.0561339 29.3509363,56.0674265 C29.0549031,55.0787191 23.6739268,46.2033145 15.3709258,47.5866505 C7.06792473,48.9699865 12.5526169,58.2392186 9.92818898,59.1299363 C7.30376103,60.0206541 2.65354103,56.1418543 0.573436265,49.7426895 C-1.49384473,43.3829753 1.8203718,31.6122039 13.9217704,33.1725621 C26.023169,34.7329202 28.307263,45.9571389 30.1082184,47.5866505 C31.9091737,49.2161621 24.9563029,40.1231511 24.9563029,28.9568717 C24.9563029,17.7905923 34.3970512,6.34318154e-15 35.5650272,0 C36.2676115,-3.50582326e-15 46.1816842,16.515672 46.1816842,28.9568717 C46.1816842,37.8064441 43.5042685,36.8640382 43.5042685,42.5712468" id="Cable" stroke="#FFFFFF" stroke-width="2"></path>
                        <g id="Controller" transform="translate(32.468431, 43.800696)">
                            <path d="M18.6151483,2.44340191 L17.3745652,2.44340191 L9.49368696,2.44340191 C4.34996937,2.66263601 0,7.00291988 0,11.9105469 C0,16.1549906 3.27074326,20.7368874 8.14707242,20.7965636 C8.92220787,20.7965636 9.9271241,20.4288468 11.1996506,19.9737475 C12.1056836,19.6421239 13.1353206,19.2758244 14.1722548,19.0024515 C16.8583357,18.3100698 20.3777763,18.3100698 23.0523903,19.0024515 C24.1387661,19.2869 25.2672864,19.6767892 26.2663947,20.0209198 C27.6930541,20.5176501 28.5249245,20.7965636 29.0833768,20.7965636 C33.9597819,20.7202496 37.2304469,16.13723 37.2304469,11.9105469 C37.2304469,6.90701228 33.0725874,2.66256852 27.9359436,2.44340191 L18.6151483,2.44340191 Z" id="Outline" stroke="#FFFFFF" stroke-width="2"></path>
                            <g id="ABXY" transform="translate(19.037423, 7.067030)" fill="#FFFFFF">
                                <path d="M8.89792081,2.20818272 C8.89792081,1.07298969 7.92901138,0.148817976 6.73886541,0.148817976 C5.54723861,0.148817976 4.5783662,1.07298969 4.5783662,2.20818272 C4.5783662,3.34337576 5.54727563,4.26754747 6.7374216,4.26754747 C7.92904841,4.26892815 8.89792081,3.34475291 8.89792081,2.20818272 Z" id="Fill-5"></path>
                                <path d="M12.4839569,1.91398842 C11.293413,1.91398842 10.3241796,2.83816048 10.3241796,3.97335394 C10.3241796,5.1085474 11.293413,6.03271946 12.4839569,6.03271946 C13.6745008,6.03271946 14.6437342,5.1085474 14.6437342,3.97335394 C14.6437342,2.83816048 13.6745008,1.91398842 12.4839569,1.91398842 Z" id="Fill-6"></path>
                                <path d="M2.22648857,3.85739651 C1.03594466,3.85739651 0.0667112681,4.78156857 0.0667112681,5.91676203 C0.0667112681,7.05195549 1.03594466,7.97612755 2.22648857,7.97612755 C3.41703248,7.97612755 4.38626588,7.05195549 4.38626588,5.91676203 C4.38626588,4.78156857 3.41703248,3.85739651 2.22648857,3.85739651 Z" id="Fill-7"></path>
                                <path d="M7.97230197,5.62256695 C6.78175806,5.62256695 5.81252466,6.54673901 5.81252466,7.68193247 C5.81252466,8.81712593 6.78175806,9.74129799 7.97230197,9.74129799 C9.16284588,9.74129799 10.1320793,8.81712593 10.1320793,7.68193247 C10.1320793,6.54673901 9.16284588,5.62256695 7.97230197,5.62256695 Z" id="Fill-8"></path>
                            </g>
                            <path d="M10.3462065,10.2693265 L13.2418622,10.2693265 C13.5006356,10.2693265 13.7104128,10.4791037 13.7104128,10.7378771 L13.7104128,12.0267654 C13.7104128,12.2855387 13.5006356,12.495316 13.2418622,12.495316 L10.3462065,12.495316 L10.3462065,15.4247618 C10.3462065,15.6835351 10.1364292,15.8933124 9.8776559,15.8933124 L8.65634777,15.8933124 C8.39757443,15.8933124 8.18779718,15.6835351 8.18779718,15.4247618 L8.18779718,12.495316 L5.15698112,12.495316 C4.89820778,12.495316 4.68843053,12.2855387 4.68843053,12.0267654 L4.68843053,10.7378771 C4.68843053,10.4791037 4.89820778,10.2693265 5.15698112,10.2693265 L8.18779718,10.2693265 L8.18779718,7.33988068 C8.18779718,7.08110734 8.39757443,6.87133009 8.65634777,6.87133009 L9.8776559,6.87133009 C10.1364292,6.87133009 10.3462065,7.08110734 10.3462065,7.33988068 L10.3462065,10.2693265 Z" id="DPad" fill="#FFFFFF"></path>
                            <path d="M22.8319315,6.08620486 C22.8319315,5.80210994 22.5542776,5.56998937 22.2144292,5.56998937 L14.8103246,5.57119945 C14.4704873,5.57119945 14.1928223,5.80331072 14.1928223,6.08741493 C14.1928223,6.37150985 14.4704762,6.60363042 14.8103246,6.60363042 L22.2144292,6.60363042 C22.5542665,6.60242034 22.8319315,6.37030906 22.8319315,6.08620795 L22.8319315,6.08620486 Z" id="Deco" fill="#FFFFFF"></path>
                            <rect id="WireCap" stroke="#FFFFFF" fill="#FFFFFF" x="9.8245614" y="0" width="2.67401" height="2.36033896" rx="0.1"></rect>
                        </g>
                    </g>
                </g>
            </g>
        </g>
    </g>
</svg>